<?xml version="1.0" encoding="utf-8" standalone="no"?>
<!DOCTYPE svg PUBLIC "-//W3C//DTD SVG 1.1//EN"
  "http://www.w3.org/Graphics/SVG/1.1/DTD/svg11.dtd">
<svg xmlns:xlink="http://www.w3.org/1999/xlink" width="720pt" height="396pt" viewBox="0 0 720 396" xmlns="http://www.w3.org/2000/svg" version="1.1">
 <metadata>
  <rdf:RDF xmlns:dc="http://purl.org/dc/elements/1.1/" xmlns:cc="http://creativecommons.org/ns#" xmlns:rdf="http://www.w3.org/1999/02/22-rdf-syntax-ns#">
   <cc:Work>
    <dc:type rdf:resource="http://purl.org/dc/dcmitype/StillImage"/>
    <dc:date>2026-09-23T08:28:57.212666</dc:date>
    <dc:format>image/svg+xml</dc:format>
    <dc:creator>
     <cc:Agent>
      <dc:title>Matplotlib v3.10.8, https://matplotlib.org/</dc:title>
     </cc:Agent>
    </dc:creator>
   </cc:Work>
  </rdf:RDF>
 </metadata>
 <defs>
  <style type="text/css">*{stroke-linejoin: round; stroke-linecap: butt}</style>
 </defs>
 <g id="figure_1">
  <g id="patch_1">
   <path d="M 0 396 
L 720 396 
L 720 0 
L 0 0 
z
" style="fill: #ffffff"/>
  </g>
  <g id="axes_1">
   <g id="patch_2">
    <path d="M 129.6 332.64 
L 698.4 332.64 
L 698.4 15.84 
L 129.6 15.84 
z
" style="fill: #ffffff"/>
   </g>
   <g id="matplotlib.axis_1">
    <g id="xtick_1">
     <g id="line2d_1">
      <defs>
       <path id="ma00e1515e4" d="M 0 0 
L 0 3.5 
" style="stroke: #000000; stroke-width: 0.8"/>
      </defs>
      <g>
       <use xlink:href="#ma00e1515e4" x="224.4" y="332.64" style="stroke: #000000; stroke-width: 0.8"/>
      </g>
     </g>
     <g id="text_1">
      <text style="font-size: 8.5px; font-family: 'DejaVu Sans'; text-anchor: middle" x="224.4" y="346.098672" transform="rotate(-0 224.4 346.098672)">Model / bench</text>
     </g>
    </g>
    <g id="xtick_2">
     <g id="line2d_2">
      <g>
       <use xlink:href="#ma00e1515e4" x="414" y="332.64" style="stroke: #000000; stroke-width: 0.8"/>
      </g>
     </g>
     <g id="text_2">
      <text style="font-size: 8.5px; font-family: 'DejaVu Sans'; text-anchor: middle" x="414" y="346.098672" transform="rotate(-0 414 346.098672)">Indoor free flight</text>
     </g>
    </g>
    <g id="xtick_3">
     <g id="line2d_3">
      <g>
       <use xlink:href="#ma00e1515e4" x="603.6" y="332.64" style="stroke: #000000; stroke-width: 0.8"/>
      </g>
     </g>
     <g id="text_3">
      <text style="font-size: 8.5px; font-family: 'DejaVu Sans'; text-anchor: middle" x="603.6" y="346.098672" transform="rotate(-0 603.6 346.098672)">Outdoor free flight</text>
     </g>
    </g>
    <g id="text_4">
     <text style="font-size: 10px; font-family: 'DejaVu Sans'; text-anchor: middle" x="414" y="365.464844" transform="rotate(-0 414 365.464844)">Experimental setting</text>
    </g>
   </g>
   <g id="matplotlib.axis_2">
    <g id="ytick_1">
     <g id="line2d_4">
      <defs>
       <path id="m15b071a542" d="M 0 0 
L -3.5 0 
" style="stroke: #000000; stroke-width: 0.8"/>
      </defs>
      <g>
       <use xlink:href="#m15b071a542" x="129.6" y="296.086154" style="stroke: #000000; stroke-width: 0.8"/>
      </g>
     </g>
     <g id="text_5">
      <text style="font-size: 8.5px; font-family: 'DejaVu Sans'; text-anchor: end" x="122.6" y="299.31549" transform="rotate(-0 122.6 299.31549)">Attitude stabilization</text>
     </g>
    </g>
    <g id="ytick_2">
     <g id="line2d_5">
      <g>
       <use xlink:href="#m15b071a542" x="129.6" y="214.855385" style="stroke: #000000; stroke-width: 0.8"/>
      </g>
     </g>
     <g id="text_6">
      <text style="font-size: 8.5px; font-family: 'DejaVu Sans'; text-anchor: end" x="122.6" y="218.084721" transform="rotate(-0 122.6 218.084721)">Ascent / hover</text>
     </g>
    </g>
    <g id="ytick_3">
     <g id="line2d_6">
      <g>
       <use xlink:href="#m15b071a542" x="129.6" y="133.624615" style="stroke: #000000; stroke-width: 0.8"/>
      </g>
     </g>
     <g id="text_7">
      <text style="font-size: 8.5px; font-family: 'DejaVu Sans'; text-anchor: end" x="122.6" y="136.853951" transform="rotate(-0 122.6 136.853951)">Trajectory tracking</text>
     </g>
    </g>
    <g id="ytick_4">
     <g id="line2d_7">
      <g>
       <use xlink:href="#m15b071a542" x="129.6" y="52.393846" style="stroke: #000000; stroke-width: 0.8"/>
      </g>
     </g>
     <g id="text_8">
      <text style="font-size: 8.5px; font-family: 'DejaVu Sans'; text-anchor: end" x="122.6" y="55.623182" transform="rotate(-0 122.6 55.623182)">Landing / diversion</text>
     </g>
    </g>
    <g id="text_9">
     <text style="font-size: 10px; font-family: 'DejaVu Sans'; text-anchor: middle" x="22.380625" y="174.24" transform="rotate(-90 22.380625 174.24)">Demonstrated task</text>
    </g>
   </g>
   <g id="line2d_8">
    <path d="M 319.2 332.64 
L 319.2 15.84 
" clip-path="url(#pc7d8810633)" style="fill: none; stroke: #d1d1d1; stroke-width: 0.8; stroke-linecap: square"/>
   </g>
   <g id="line2d_9">
    <path d="M 508.8 332.64 
L 508.8 15.84 
" clip-path="url(#pc7d8810633)" style="fill: none; stroke: #d1d1d1; stroke-width: 0.8; stroke-linecap: square"/>
   </g>
   <g id="line2d_10">
    <path d="M 129.6 255.470769 
L 698.4 255.470769 
" clip-path="url(#pc7d8810633)" style="fill: none; stroke: #d1d1d1; stroke-width: 0.8; stroke-linecap: square"/>
   </g>
   <g id="line2d_11">
    <path d="M 129.6 174.24 
L 698.4 174.24 
" clip-path="url(#pc7d8810633)" style="fill: none; stroke: #d1d1d1; stroke-width: 0.8; stroke-linecap: square"/>
   </g>
   <g id="line2d_12">
    <path d="M 129.6 93.009231 
L 698.4 93.009231 
" clip-path="url(#pc7d8810633)" style="fill: none; stroke: #d1d1d1; stroke-width: 0.8; stroke-linecap: square"/>
   </g>
   <g id="patch_3">
    <path d="M 129.6 332.64 
L 129.6 15.84 
" style="fill: none; stroke: #666666; stroke-width: 0.8; stroke-linejoin: miter; stroke-linecap: square"/>
   </g>
   <g id="patch_4">
    <path d="M 129.6 332.64 
L 698.4 332.64 
" style="fill: none; stroke: #666666; stroke-width: 0.8; stroke-linejoin: miter; stroke-linecap: square"/>
   </g>
   <g id="line2d_13">
    <defs>
     <path id="m3bc4d7b0ad" d="M 0 2.75 
C 0.729309 2.75 1.428845 2.460243 1.944544 1.944544 
C 2.460243 1.428845 2.75 0.729309 2.75 0 
C 2.75 -0.729309 2.460243 -1.428845 1.944544 -1.944544 
C 1.428845 -2.460243 0.729309 -2.75 0 -2.75 
C -0.729309 -2.75 -1.428845 -2.460243 -1.944544 -1.944544 
C -2.460243 -1.428845 -2.75 -0.729309 -2.75 0 
C -2.75 0.729309 -2.460243 1.428845 -1.944544 1.944544 
C -1.428845 2.460243 -0.729309 2.75 0 2.75 
z
" style="stroke: #1768ac"/>
    </defs>
    <g clip-path="url(#pc7d8810633)">
     <use xlink:href="#m3bc4d7b0ad" x="154.248" y="296.086154" style="fill: #1768ac; stroke: #1768ac"/>
    </g>
   </g>
   <g id="line2d_14">
    <defs>
     <path id="m7cf9ca1fac" d="M 0 2.75 
C 0.729309 2.75 1.428845 2.460243 1.944544 1.944544 
C 2.460243 1.428845 2.75 0.729309 2.75 0 
C 2.75 -0.729309 2.460243 -1.428845 1.944544 -1.944544 
C 1.428845 -2.460243 0.729309 -2.75 0 -2.75 
C -0.729309 -2.75 -1.428845 -2.460243 -1.944544 -1.944544 
C -2.460243 -1.428845 -2.75 -0.729309 -2.75 0 
C -2.75 0.729309 -2.460243 1.428845 -1.944544 1.944544 
C -1.428845 2.460243 -0.729309 2.75 0 2.75 
z
" style="stroke: #000000"/>
    </defs>
    <g clip-path="url(#pc7d8810633)">
     <use xlink:href="#m7cf9ca1fac" x="343.848" y="214.855385" style="stroke: #000000"/>
    </g>
   </g>
   <g id="line2d_15">
    <g clip-path="url(#pc7d8810633)">
     <use xlink:href="#m7cf9ca1fac" x="343.848" y="133.624615" style="stroke: #000000"/>
    </g>
   </g>
   <g id="line2d_16">
    <g clip-path="url(#pc7d8810633)">
     <use xlink:href="#m7cf9ca1fac" x="533.448" y="214.855385" style="stroke: #000000"/>
    </g>
   </g>
   <g id="line2d_17">
    <g clip-path="url(#pc7d8810633)">
     <use xlink:href="#m7cf9ca1fac" x="533.448" y="65.390769" style="stroke: #000000"/>
    </g>
   </g>
   <g id="line2d_18">
    <g clip-path="url(#pc7d8810633)">
     <use xlink:href="#m7cf9ca1fac" x="533.448" y="39.396923" style="stroke: #000000"/>
    </g>
   </g>
   <g id="text_10">
    <text style="font-size: 8.6px; font-family: 'DejaVu Sans'; text-anchor: start; fill: #1768ac" x="160.248" y="298.459216" transform="rotate(-0 160.248 298.459216)">Our Vehicle</text>
   </g>
   <g id="text_11">
    <text style="font-size: 8.6px; font-family: 'DejaVu Sans'; text-anchor: start" x="349.848" y="217.228447" transform="rotate(-0 349.848 217.228447)">Chen (2024)</text>
   </g>
   <g id="text_12">
    <text style="font-size: 8.6px; font-family: 'DejaVu Sans'; text-anchor: start" x="349.848" y="135.997678" transform="rotate(-0 349.848 135.997678)">Santos (2026)</text>
   </g>
   <g id="text_13">
    <text style="font-size: 8.6px; font-family: 'DejaVu Sans'; text-anchor: start" x="539.448" y="217.228447" transform="rotate(-0 539.448 217.228447)">Denton (2022)</text>
   </g>
   <g id="text_14">
    <text style="font-size: 8.6px; font-family: 'DejaVu Sans'; text-anchor: start" x="539.448" y="67.763832" transform="rotate(-0 539.448 67.763832)">Spannagl (2021)</text>
   </g>
   <g id="text_15">
    <text style="font-size: 8.6px; font-family: 'DejaVu Sans'; text-anchor: start" x="539.448" y="41.769986" transform="rotate(-0 539.448 41.769986)">Linsen (2022)</text>
   </g>
  </g>
 </g>
 <defs>
  <clipPath id="pc7d8810633">
   <rect x="129.6" y="15.84" width="568.8" height="316.8"/>
  </clipPath>
 </defs>
</svg>
